Coordinates
version=1
nRows=43
nColumns=12
inDegrees=yes

Units are S.I. units (second, meters, Newtons, ...)
Angles are in degrees

endheader
time	SC_y	SC_z	SC_x	AC_y	AC_z	AC_x	GH_y	GH_z	GH_yy	EL_x	PS_y
       0.0              -19.31          19.28          58.47          44.88         -9.332         -2.177           23.4          69.18         -19.93          68.03          82.54
   0.01613              -19.32          19.28          58.47          44.88         -9.333         -2.177          23.41          69.17         -19.91          68.04          82.54
   0.03225              -19.32          19.28          58.48          44.88         -9.334         -2.177          23.42          69.17         -19.89          68.04          82.54
   0.04838              -19.33          19.28          58.48          44.88         -9.335         -2.178          23.43          69.16         -19.86          68.05          82.55
   0.06451              -19.34          19.28          58.48          44.87         -9.335         -2.178          23.44          69.16         -19.84          68.06          82.55
   0.08063              -19.34          19.28          58.49          44.87         -9.336         -2.178          23.45          69.15         -19.81          68.07          82.55
   0.09676              -19.35          19.28          58.49          44.87         -9.337         -2.178          23.46          69.15         -19.78          68.08          82.55
    0.1129              -19.36          19.29           58.5          44.87         -9.338         -2.179          23.47          69.14         -19.75          68.09          82.55
     0.129              -19.37          19.29           58.5          44.86          -9.34         -2.179          23.49          69.14         -19.71          68.11          82.55
    0.1451              -19.38          19.29          58.51          44.86         -9.341         -2.179           23.5          69.13         -19.68          68.12          82.55
    0.1613              -19.39          19.29          58.51          44.85         -9.342          -2.18          23.52          69.13         -19.64          68.13          82.55
    0.1774               -19.4          19.29          58.52          44.85         -9.343          -2.18          23.53          69.12         -19.59          68.15          82.56
    0.1935              -19.41           19.3          58.52          44.85         -9.345          -2.18          23.55          69.11         -19.55          68.17          82.56
    0.2096              -19.42           19.3          58.53          44.84         -9.347         -2.181          23.57           69.1          -19.5          68.18          82.56
    0.2258              -19.44           19.3          58.54          44.84         -9.348         -2.181          23.59          69.09         -19.45           68.2          82.56
    0.2419              -19.45           19.3          58.55          44.83          -9.35         -2.182          23.62          69.08         -19.39          68.22          82.56
     0.258              -19.47          19.31          58.56          44.82         -9.352         -2.182          23.64          69.07         -19.33          68.24          82.56
    0.2742              -19.49          19.31          58.57          44.82         -9.355         -2.183          23.67          69.06         -19.26          68.27          82.57
    0.2903              -19.51          19.31          58.58          44.81         -9.357         -2.184           23.7          69.05         -19.18           68.3          82.57
    0.3064              -19.53          19.32          58.59           44.8          -9.36         -2.184          23.73          69.04          -19.1          68.33          82.57
    0.3225              -19.55          19.32           58.6          44.79         -9.363         -2.185          23.77          69.02         -19.01          68.36          82.58
    0.3387              -19.58          19.33          58.61          44.78         -9.366         -2.186          23.81           69.0         -18.91          68.39          82.58
    0.3548               -19.6          19.33          58.63          44.77          -9.37         -2.187          23.85          68.99          -18.8          68.43          82.58
    0.3709              -19.64          19.34          58.65          44.76         -9.374         -2.188           23.9          68.97         -18.68          68.48          82.59
     0.387              -19.67          19.34          58.67          44.75         -9.378          -2.19          23.95          68.94         -18.55          68.52          82.59
    0.4032              -19.71          19.35          58.69          44.73         -9.383         -2.191          24.01          68.92          -18.4          68.58           82.6
    0.4193              -19.75          19.36          58.71          44.72         -9.388         -2.192          24.08          68.89         -18.23          68.64           82.6
    0.4354               -19.8          19.37          58.74           44.7         -9.395         -2.194          24.15          68.86         -18.04          68.71          82.61
    0.4515              -19.86          19.38          58.77          44.68         -9.402         -2.196          24.24          68.82         -17.83          68.78          82.62
    0.4677              -19.92          19.39           58.8          44.65          -9.41         -2.198          24.33          68.78         -17.59          68.87          82.63
    0.4838              -19.99           19.4          58.84          44.62         -9.419         -2.201          24.45          68.73         -17.31          68.97          82.64
    0.4999              -20.08          19.42          58.89          44.59         -9.429         -2.204          24.57          68.68         -16.99          69.08          82.65
     0.516              -20.17          19.44          58.94          44.56         -9.441         -2.207          24.72          68.62         -16.63          69.21          82.66
    0.5322              -20.28          19.46           59.0          44.52         -9.455         -2.211          24.89          68.55          -16.2          69.37          82.67
    0.5483              -20.41          19.48          59.07          44.47         -9.472         -2.215          25.09          68.46          -15.7          69.54          82.69
    0.5644              -20.57          19.51          59.16          44.41         -9.491         -2.221          25.32          68.36         -15.11          69.75          82.71
    0.5806              -20.75          19.55          59.26          44.34         -9.514         -2.227           25.6          68.25         -14.42           70.0          82.74
    0.5967              -20.97          19.59          59.38          44.26         -9.542         -2.235          25.93          68.11         -13.58           70.3          82.77
    0.6128              -21.23          19.64          59.52          44.16         -9.575         -2.244          26.34          67.94         -12.57          70.67           82.8
    0.6289              -21.55           19.7           59.7          44.03         -9.616         -2.255          26.83          67.73         -11.33          71.11          82.85
    0.6451              -21.95          19.77          59.92          43.88         -9.666         -2.269          27.44          67.47         -9.806          71.66           82.9
    0.6612              -22.44          19.86          60.19          43.69         -9.729         -2.286           28.2          67.15         -7.904          72.34          82.97
    0.6773              -23.07          19.98          60.53          43.46         -9.808         -2.308          29.15          66.75         -5.507           73.2          83.05
